<?xml version="1.0" encoding="iso-8859-1"?>
<!-- Uploaded to: SVG Repo, www.svgrepo.com, Generator: SVG Repo Mixer Tools -->
<!DOCTYPE svg PUBLIC "-//W3C//DTD SVG 1.1//EN" "http://www.w3.org/Graphics/SVG/1.1/DTD/svg11.dtd">
<svg fill="#000000" version="1.1" id="Capa_1" xmlns="http://www.w3.org/2000/svg" xmlns:xlink="http://www.w3.org/1999/xlink" 
	 width="800px" height="800px" viewBox="0 0 36.536 36.535"
	 xml:space="preserve">
<g>
	<path d="M33.83,24.202c0-5.062-3.121-9.404-7.539-11.217V9.7c0-0.601-0.485-1.086-1.084-1.086H3.79c-0.6,0-1.084,0.485-1.084,1.086
		v3.795c0,0.598,0.485,1.082,1.084,1.082h10.569c-0.537,0.412-1.037,0.865-1.498,1.356H3.79c-0.6,0-1.084,0.485-1.084,1.083v3.796
		c0,0.601,0.485,1.084,1.084,1.084h6.016c-0.086,0.443-0.142,0.896-0.178,1.355H3.79c-0.6,0-1.084,0.486-1.084,1.085v3.796
		c0,0.598,0.485,1.084,1.084,1.084h6.889c0.214,0.469,0.458,0.92,0.729,1.355H3.79c-0.6,0-1.084,0.484-1.084,1.084v3.795
		c0,0.6,0.485,1.084,1.084,1.084h21.417c0.599,0,1.084-0.484,1.084-1.084v-0.033C30.708,33.605,33.83,29.264,33.83,24.202z
		 M21.704,35.439c-6.194,0-11.234-5.041-11.234-11.235c0-6.196,5.04-11.237,11.234-11.237c6.197,0,11.238,5.041,11.238,11.237
		C32.942,30.398,27.901,35.439,21.704,35.439z M13.151,28.33c0.101,0.209,0.014,0.461-0.195,0.562
		c-0.059,0.027-0.122,0.041-0.183,0.041c-0.156,0-0.306-0.086-0.378-0.236c-0.679-1.401-1.026-2.91-1.03-4.48
		c0-0.23,0.187-0.42,0.419-0.421c0,0,0,0,0.001,0c0.231,0,0.419,0.188,0.42,0.421C12.208,25.659,12.526,27.043,13.151,28.33z
		 M12.378,19.73c0.666-1.389,1.655-2.635,2.859-3.603c0.182-0.144,0.445-0.116,0.591,0.063c0.146,0.182,0.116,0.446-0.065,0.592
		c-1.107,0.889-2.017,2.033-2.628,3.311c-0.072,0.148-0.222,0.236-0.379,0.236c-0.061,0-0.123-0.012-0.181-0.041
		C12.366,20.189,12.277,19.939,12.378,19.73z M27.602,16.748c-0.183-0.146-0.213-0.408-0.068-0.59s0.41-0.213,0.59-0.068
		c1.211,0.96,2.207,2.199,2.882,3.583c0.103,0.209,0.015,0.459-0.192,0.561c-0.061,0.031-0.123,0.043-0.185,0.043
		c-0.155,0-0.306-0.086-0.378-0.233C29.629,18.77,28.713,17.631,27.602,16.748z M19.059,14.623c-0.051-0.226,0.09-0.451,0.315-0.504
		c1.498-0.344,3.099-0.35,4.599-0.012c0.227,0.051,0.369,0.274,0.317,0.5c-0.051,0.227-0.274,0.371-0.502,0.318
		c-1.379-0.311-2.851-0.305-4.228,0.013c-0.03,0.007-0.062,0.011-0.094,0.011C19.278,14.95,19.106,14.819,19.059,14.623z
		 M32.042,24.157v0.038c0,1.57-0.344,3.08-1.021,4.484c-0.072,0.148-0.223,0.236-0.379,0.236c-0.062,0-0.123-0.012-0.182-0.043
		c-0.209-0.1-0.296-0.352-0.195-0.561c0.621-1.289,0.938-2.674,0.938-4.117c0-0.232,0.188-0.439,0.42-0.439
		S32.042,23.924,32.042,24.157z M19.917,33.962c-0.045,0.194-0.217,0.327-0.409,0.327c-0.031,0-0.062-0.004-0.095-0.01
		c-1.5-0.342-2.934-1.029-4.145-1.992c-0.181-0.146-0.211-0.408-0.067-0.592c0.144-0.182,0.408-0.209,0.59-0.064
		c1.111,0.885,2.428,1.518,3.807,1.828C19.827,33.512,19.969,33.736,19.917,33.962z M28.219,31.686
		c0.146,0.183,0.114,0.445-0.064,0.59c-1.209,0.966-2.641,1.656-4.143,1.998c-0.031,0.009-0.062,0.013-0.095,0.013
		c-0.19,0-0.362-0.131-0.407-0.326c-0.054-0.228,0.09-0.45,0.313-0.502c1.379-0.315,2.694-0.95,3.805-1.838
		C27.811,31.475,28.077,31.504,28.219,31.686z M21.823,23.43h-0.869v-1.932h0.869c0.506,0,0.857,0.031,1.056,0.094
		c0.196,0.062,0.347,0.17,0.452,0.316c0.104,0.146,0.156,0.322,0.156,0.531c0,0.201-0.057,0.379-0.166,0.531
		c-0.109,0.151-0.272,0.268-0.49,0.344C22.612,23.391,22.276,23.43,21.823,23.43z M23.473,25.086
		c0.108,0.162,0.164,0.359,0.164,0.596c0,0.277-0.078,0.514-0.23,0.709c-0.156,0.198-0.344,0.328-0.564,0.39
		c-0.223,0.063-0.5,0.096-0.834,0.096H21.43c-0.192,0-0.311-0.012-0.354-0.032c-0.043-0.021-0.074-0.058-0.093-0.109
		c-0.016-0.039-0.024-0.184-0.028-0.426v-1.715h1.024c0.449,0,0.785,0.043,1.004,0.127C23.2,24.801,23.364,24.924,23.473,25.086z
		 M21.704,16.153c-4.441,0-8.042,3.601-8.042,8.042s3.601,8.044,8.042,8.044c4.441,0,8.045-3.603,8.045-8.044
		C29.748,19.752,26.145,16.153,21.704,16.153z M25.311,27.053c-0.252,0.354-0.609,0.625-1.072,0.809
		c-0.168,0.068-0.367,0.123-0.594,0.166v1.416h-1.34v-1.305c-0.033,0-0.064,0.002-0.101,0.002h-0.763v1.303h-1.34v-1.303h-2.046
		v-1.097h0.312c0.208,0,0.35-0.019,0.422-0.054c0.074-0.035,0.127-0.088,0.156-0.153s0.045-0.214,0.045-0.446v-4.414
		c0-0.233-0.016-0.385-0.045-0.449c-0.029-0.062-0.082-0.114-0.156-0.153c-0.072-0.036-0.213-0.058-0.422-0.058h-0.312v-1.096h2.046
		v-1.303h1.34v1.303h0.861v-1.303h1.342v1.396c0.197,0.037,0.377,0.086,0.531,0.146c0.393,0.159,0.695,0.393,0.908,0.689
		c0.211,0.304,0.316,0.634,0.316,0.992c0,0.263-0.057,0.51-0.168,0.744c-0.113,0.232-0.273,0.439-0.484,0.621
		c-0.211,0.18-0.488,0.327-0.834,0.445c0.371,0.094,0.654,0.197,0.852,0.312c0.283,0.158,0.508,0.381,0.676,0.668
		c0.166,0.285,0.25,0.604,0.25,0.955C25.694,26.312,25.567,26.7,25.311,27.053z M32.288,0l-3.75,4.646l4.75,0.212l-6,7.393
		l1.5-5.703h-4l1.5-6.547"/>
</g>
</svg>